PathFileType	4	(X/Y/Z)	OpenSim_Sub04_CSStiffKnee_Accel.trc
DataRate	CameraRate	NumFrames	NumMarkers	Units	OrigDataRate	OrigDataStartFrame	OrigNumFrames
100	100	42	8	m	100	1	7413
Frame#	Time	torso_imu_offset_imu	pelvis_imu_offset_imu	tibia_r_imu_offset_imu	femur_r_imu_offset_imu	tibia_l_imu_offset_imu	femur_l_imu_offset_imu	toes_r_imu_offset_imu	toes_l_imu_offset_imu
				X1	Y1	Z1	X2	Y2	Z2	X3	Y3	Z3	X4	Y4	Z4	X5	Y5	Z5	X6	Y6	Z6	X7	Y7	Z7	X8		Y8	Z8	

1	0	-7.18400921	-0.15317552	9.38540001	9.34694546	0.10032829	3.54917665	9.63742714	0.78674760	2.26613697	9.60477144	-0.89792429	0.97115484	9.55756602	-1.35321539	1.16772214	9.64311155	0.26357478	-1.36900940	5.91443259	-1.62804428	7.84242460	5.01311293	2.75669622	10.73064269
2	0.01000000	-7.23605441	-0.12502841	9.29546214	9.34681717	0.07684448	3.56512382	9.70554938	0.97249140	2.06059306	9.66535165	-0.89102002	0.98323812	9.68600397	-1.37297159	1.17085233	9.67641142	0.27444900	-1.33379688	5.84806433	-1.68670748	7.81709911	4.98843305	2.79091260	10.75083417
3	0.02000000	-7.16520154	-0.17669344	9.27037108	9.38819380	0.05526310	3.54973876	9.85774144	1.10011752	1.94817784	9.71634996	-0.94238269	0.99941688	9.72454757	-1.45363983	1.17271622	9.70883702	0.20907457	-1.30364135	5.85291334	-1.70191398	7.80036035	4.95921208	2.79387155	10.70580613
4	0.03000000	-7.15131957	-0.23252380	9.21922032	9.39062593	-0.00935202	3.53482364	9.88890207	1.12869225	2.05078076	9.76799067	-0.97383701	0.97561490	9.74693632	-1.59988441	1.15077980	9.77634503	0.18787357	-1.33123441	5.83626809	-1.66105115	7.87324245	4.92941049	2.74751171	10.75659491
5	0.04000000	-7.20887951	-0.23201388	9.24940306	9.42838049	-0.03094860	3.48286550	9.84833189	1.24432585	2.11828347	9.74872925	-0.95142909	0.95616807	9.75536246	-1.74847475	1.13998324	9.82517247	0.16912344	-1.33602380	5.81648312	-1.67418661	7.85348121	4.95846832	2.73536010	10.75700395
6	0.05000000	-7.25508863	-0.14437539	9.31697374	9.50182577	-0.02040470	3.43512623	9.76176625	1.37425512	2.13752263	9.70507826	-0.94135131	0.95939072	9.68529909	-1.85096194	1.14362208	9.82045407	0.17471095	-1.36330034	5.86977265	-1.62327463	7.87283214	4.99617444	2.73449314	10.73018794
7	0.06000000	-7.36315355	-0.04722832	9.34697682	9.56485588	-0.01981566	3.37345602	9.70797290	1.50962192	2.18140338	9.67387081	-0.95358774	0.91665548	9.64329390	-1.90377996	1.09045904	9.81923662	0.22420187	-1.41844326	5.91868935	-1.56951519	7.92000277	5.01823455	2.80573409	10.72813450
8	0.07000000	-7.39667418	0.01130569	9.25344396	9.64997470	0.01314218	3.36601187	9.69125238	1.58082102	2.11616376	9.70388687	-0.89677389	0.89939902	9.63118400	-1.88611026	1.07079025	9.73961588	0.30813228	-1.42538719	5.88687559	-1.58942921	7.92296128	5.00622294	2.78709657	10.70490273
9	0.08000000	-7.37308109	0.01039075	9.24024202	9.67813414	0.06564686	3.40696068	9.72931638	1.50626969	2.15417763	9.70695194	-0.87984076	0.89212866	9.61770806	-1.84279988	1.11082035	9.66464382	0.35551733	-1.40822856	5.88032617	-1.59513656	7.87240054	5.01653810	2.74639763	10.65218657
10	0.09000000	-7.33325124	-0.01956539	9.19944442	9.66802806	0.12807532	3.39568854	9.74163586	1.46161730	2.19739891	9.74070207	-0.83291110	0.88727637	9.58990545	-1.74501369	1.14058201	9.59966435	0.33910868	-1.39837343	5.88982034	-1.60198899	7.83945645	5.00888319	2.75118478	10.66904150
11	0.10000000	-7.31578719	-0.06469708	9.18623034	9.61056697	0.20543146	3.45082212	9.68729447	1.41677422	2.17840422	9.76050159	-0.78473139	0.95382397	9.59791880	-1.60493217	1.17474865	9.58181569	0.34454246	-1.33853875	5.85818662	-1.60293970	7.82941891	4.99831761	2.77069934	10.69624778
12	0.11000000	-7.29242232	-0.07022733	9.14380209	9.51507314	0.26066451	3.49414916	9.69322035	1.37186972	2.16086022	9.71882791	-0.77852803	1.01754440	9.65400303	-1.54564067	1.12916519	9.60366758	0.35256361	-1.30554675	5.85961893	-1.55755830	7.88304355	4.99276570	2.76104294	10.70696901
13	0.12000000	-7.25974966	-0.09480568	9.16659796	9.40293460	0.24916771	3.50984395	9.74936533	1.32792511	2.12940861	9.72897603	-0.73285184	1.06887729	9.65135028	-1.53775634	1.15011506	9.65464566	0.31733119	-1.30161677	5.87374802	-1.61467342	7.90228724	5.01221396	2.75981787	10.72372534
14	0.13000000	-7.21162977	-0.13723052	9.18074441	9.34914992	0.24724666	3.56455539	9.73551680	1.26449211	2.09304302	9.73894756	-0.70827008	1.01793476	9.66428185	-1.54405395	1.12995773	9.69755539	0.34471785	-1.27229864	5.88115324	-1.65220543	7.86382306	5.00260287	2.77220581	10.70835656
15	0.14000000	-7.15697080	-0.13727216	9.15474534	9.30820433	0.26370176	3.56906490	9.72453290	1.21196613	2.09013507	9.71741616	-0.72657859	0.96974255	9.65691634	-1.54110047	1.08910082	9.69987213	0.41535421	-1.26358583	5.85988590	-1.65192406	7.81074351	5.01215635	2.79558642	10.68211636
16	0.15000000	-7.15905458	-0.17298506	9.12945056	9.27157911	0.24535207	3.60179684	9.73741577	1.14890619	2.05780744	9.68497144	-0.72699987	0.98782348	9.64423450	-1.52568969	1.15145371	9.70105190	0.46189063	-1.29654877	5.86521787	-1.67880898	7.86089888	5.00272164	2.76306442	10.68054656
17	0.16000000	-7.21959986	-0.16067067	9.14265517	9.26057732	0.26141462	3.60684519	9.71348499	1.10745884	2.07185880	9.67173413	-0.70621902	0.90567913	9.64245125	-1.45954810	1.11387727	9.70532341	0.51414821	-1.32794543	5.88775312	-1.66357243	7.89728988	4.97332405	2.78467525	10.74052793
18	0.17000000	-7.24152128	-0.13040875	9.12881504	9.28125579	0.26685648	3.59004213	9.69810921	1.07969951	2.05911955	9.69001605	-0.69121996	0.86869493	9.66249495	-1.43042241	1.10411288	9.69309675	0.57920121	-1.28802770	5.90669977	-1.67063855	7.82989927	4.95301199	2.76023394	10.71957978
19	0.18000000	-7.28544737	-0.12694477	9.12540553	9.33959051	0.21217183	3.61392891	9.71996759	1.06236151	2.04293881	9.67838243	-0.70093388	0.92190783	9.68492721	-1.43923192	1.17342444	9.70771964	0.63641883	-1.30007610	5.88522297	-1.68459448	7.81794439	4.96875970	2.74107755	10.71409692
20	0.19000000	-7.33920805	-0.11030716	9.20179903	9.35168406	0.17161499	3.57493405	9.71675003	1.01822448	2.08804101	9.67481176	-0.68441350	0.98461471	9.70581220	-1.46619826	1.14135658	9.71124401	0.61167705	-1.27119712	5.85551969	-1.66224813	7.87700847	4.98622558	2.81389368	10.71816058
21	0.20000000	-7.39016795	-0.12218453	9.19705761	9.35847023	0.15599890	3.58212191	9.71437691	1.01523777	2.09502707	9.69359333	-0.67572558	0.96677955	9.71652879	-1.46558923	1.11469753	9.70825920	0.56303603	-1.26381106	5.92128150	-1.65183194	7.87635427	5.01846048	2.78108010	10.71889469
22	0.21000000	-7.41121164	-0.12291696	9.20015660	9.36359803	0.15550003	3.54350962	9.69748460	1.06074523	2.10554554	9.68919729	-0.67594953	0.98341081	9.68696908	-1.48891019	1.18867282	9.75533462	0.48306501	-1.29220450	5.91848227	-1.62769870	7.88494545	4.99994656	2.77521444	10.73358074
23	0.22000000	-7.39552240	-0.12881301	9.21151114	9.33810227	0.16539780	3.51305368	9.70515234	1.08617743	2.14002607	9.67868059	-0.69262286	0.97225062	9.70611752	-1.49457514	1.19870799	9.75472293	0.42543382	-1.32440478	5.89036633	-1.63648416	7.85321180	4.99172774	2.79226014	10.73549335
24	0.23000000	-7.41579355	-0.11145349	9.14197985	9.33195892	0.19000898	3.55634377	9.71842320	1.08478413	2.10318275	9.70997489	-0.78573009	0.94333196	9.70877087	-1.42307581	1.16047934	9.73954704	0.40783325	-1.36340968	5.86042002	-1.62805289	7.87435204	5.00917952	2.79044961	10.71975984
25	0.24000000	-7.42227156	-0.08969016	9.12136746	9.35745212	0.18865140	3.52729773	9.80997829	1.06007570	2.08875894	9.73885579	-0.85056760	0.94523875	9.67596964	-1.37950114	1.15987238	9.70743764	0.38739619	-1.32350488	5.82174960	-1.66859419	7.89275978	4.99531453	2.75972569	10.70594801
26	0.25000000	-7.37133855	-0.11762764	9.14001192	9.36979074	0.18198347	3.52109087	9.89779126	1.03545921	2.11769392	9.77452765	-0.94433173	0.96940461	9.63269673	-1.42430727	1.19369790	9.67154227	0.38617924	-1.28753395	5.82782485	-1.67449515	7.89815285	4.99283012	2.72923910	10.70819077
27	0.26000000	-7.39171447	-0.10142127	9.15449886	9.35284942	0.18601808	3.54291592	9.81697608	1.02846127	2.14203419	9.80801410	-1.00817615	0.96700617	9.64632147	-1.44447875	1.23916737	9.70496519	0.34127031	-1.25808150	5.86963526	-1.62068517	7.90758283	4.97966177	2.76910138	10.70700655
28	0.27000000	-7.45453334	-0.07574191	9.22295982	9.42214505	0.18982890	3.51155512	9.72084466	1.01852070	2.19291729	9.73599420	-1.02114121	0.95084990	9.69332762	-1.45128329	1.17664499	9.74692460	0.31781229	-1.26740251	5.90238986	-1.62920051	7.86851078	4.99244431	2.80631641	10.73319485
29	0.28000000	-7.44887919	-0.07203666	9.21066645	9.46240835	0.18815065	3.49615821	9.68591370	0.96652564	2.20102105	9.66556916	-1.02690590	0.92885555	9.72607145	-1.47899856	1.14076500	9.77251217	0.29977033	-1.22591398	5.86740114	-1.59170540	7.87910544	5.00934368	2.79150229	10.72346141
30	0.29000000	-7.42267260	-0.03868726	9.17540289	9.46573162	0.20991059	3.49743622	9.66306951	0.95731481	2.20717311	9.61093593	-1.01796207	0.93225791	9.70003895	-1.48854516	1.19757208	9.79172144	0.27329231	-1.26361520	5.88518397	-1.57192606	7.87840323	4.97327952	2.78162609	10.72568481
31	0.30000000	-7.42687435	0.01594790	9.15229058	9.45022939	0.19171783	3.51374864	9.67080019	0.97277395	2.14340950	9.59511113	-0.99352715	0.92058366	9.69051773	-1.48927884	1.17874869	9.80059838	0.23815686	-1.29306550	5.89723175	-1.62936917	7.88283576	5.02421817	2.78752359	10.74605645
32	0.31000000	-7.43909850	0.02285644	9.14098772	9.45323672	0.16847020	3.53091957	9.71399725	0.95536571	2.04145196	9.64270522	-0.95509247	0.92852049	9.71177083	-1.49734847	1.14254344	9.79898280	0.23100445	-1.30046529	5.85241636	-1.63894575	7.86703865	5.03214388	2.79632764	10.72542916
33	0.32000000	-7.43847328	0.04847702	9.09932302	9.44896615	0.13858528	3.52456268	9.77964256	0.96479508	2.05695843	9.64438320	-0.95455146	0.93392180	9.66745291	-1.47093655	1.20046029	9.75893900	0.25611983	-1.29165246	5.78244174	-1.67069144	7.86405142	4.98028661	2.80416542	10.71932722
34	0.33000000	-7.44508355	0.03402051	9.10745464	9.42920395	0.12080910	3.56446338	9.85220247	0.96359766	2.12914067	9.65035104	-0.92760378	0.92257783	9.63323612	-1.44104458	1.23477786	9.70103178	0.28949857	-1.25797866	5.71917605	-1.71994605	7.89363285	4.99483367	2.79917147	10.70412552
35	0.34000000	-7.47023583	0.01240358	9.11194922	9.42528100	0.14453145	3.58321384	9.96403945	0.86858579	2.15743547	9.72420014	-0.91665575	0.90807113	9.64745854	-1.37870436	1.25114504	9.68383505	0.29931768	-1.23890915	5.69039478	-1.72144849	7.89389193	5.00371564	2.79678647	10.69569281
36	0.35000000	-7.45613113	0.04362783	9.11748900	9.40199951	0.20946284	3.60759346	10.00441641	0.71237044	2.17260524	9.79753333	-0.91146922	0.86346110	9.61996214	-1.38402497	1.26429168	9.65483335	0.28233001	-1.22992874	5.77473638	-1.72066355	7.91778749	5.01531488	2.77600479	10.68391511
37	0.36000000	-7.46493440	0.02772348	9.16475703	9.38755917	0.25871928	3.64833547	9.91683084	0.66081090	2.11855358	9.86061497	-0.89811230	0.80841812	9.56779022	-1.43332829	1.28196598	9.64416242	0.25983993	-1.20870166	5.86511508	-1.62480902	7.96044423	5.01356141	2.74546424	10.65870001
38	0.37000000	-7.47417798	0.03033116	9.11803804	9.35120249	0.31940845	3.65486907	9.74797561	0.83573521	2.11942171	9.86660485	-0.89701780	0.81967492	9.57709758	-1.40784541	1.27855532	9.66583883	0.27341288	-1.20485758	5.92654459	-1.60462260	7.95652400	4.94531816	2.73091130	10.72293321
39	0.38000000	-7.44617750	0.05967993	9.09052607	9.34772054	0.40313416	3.63004277	9.67706212	1.11555347	2.04715686	9.81649503	-0.89774787	0.80326286	9.61559475	-1.51582220	1.25233674	9.66847045	0.29549243	-1.21521891	5.99621223	-1.63848701	7.92629563	4.98679489	2.66824850	10.71285596
40	0.39000000	-7.43825608	0.11514493	9.07513676	9.34708862	0.46198367	3.64166917	9.72722072	1.30353224	1.96081707	9.73122648	-0.87672129	0.78185808	9.59584274	-1.70259648	1.26144299	9.67651133	0.26065916	-1.20588014	5.97849818	-1.60932959	7.90381288	5.01735761	2.65202818	10.71318648
41	0.40000000	-7.43317842	0.13953131	9.07432474	9.34910899	0.44208332	3.64218753	9.78904370	1.28760772	1.97751896	9.67585999	-0.87570505	0.80080329	9.55332672	-1.92737733	1.26381698	9.65632196	0.26726782	-1.17580504	5.98861703	-1.63667007	7.90451263	4.99581085	2.67475138	10.77039073
42	0.41000000	-7.45619472	0.17100564	9.12526893	9.33037863	0.44626005	3.64512945	9.78283932	1.15286380	2.01731869	9.66852862	-0.81860937	0.85169020	9.59195167	-2.08647813	1.15855439	9.67349313	0.25058052	-1.19034791	5.97695933	-1.63277979	7.89540563	5.00998364	2.63144504	10.73698556
